# xmcd
#
# Track frame offsets: 
#        150
#        14632
#        33643
#        60874
#
# Disc length: 1074 seconds
#
# Revision: 0
# Processed by: cddbd v1.5.2PL0 Copyright (c) Steve Scherf et al.
# Submitted via: ExactAudioCopy v0.99pb5
#
DISCID=2b043004
DTITLE=Scooter - C'est Bleu
DYEAR=2011
DGENRE=Techno
TTITLE0=C'est Bleu (Radio Edit)
TTITLE1=C'est Bleu (Album Version)
TTITLE2=C'est Bleu (Extended Version)
TTITLE3=C'est Bleu (The Dubstyle Mix)
EXTD=
EXTT0=
EXTT1=
EXTT2=
EXTT3=
PLAYORDER=
